<svg width="84" height="15" viewBox="0 0 84 15" fill="none" xmlns="http://www.w3.org/2000/svg">
<path d="M7.31755 0.695312L8.91297 5.60552H14.0759L9.899 8.6402L11.4944 13.5504L7.31755 10.5157L3.14067 13.5504L4.7361 8.6402L0.559224 5.60552H5.72213L7.31755 0.695312Z" fill="#7D2D0A"/>
<path d="M24.6203 0.69519L26.2157 5.6054H31.3786L27.2017 8.64008L28.7972 13.5503L24.6203 10.5156L20.4434 13.5503L22.0388 8.64008L17.862 5.6054H23.0249L24.6203 0.69519Z" fill="#7D2D0A"/>
<path d="M41.922 0.69519L43.5175 5.6054H48.6804L44.5035 8.64008L46.0989 13.5503L41.922 10.5156L37.7452 13.5503L39.3406 8.64008L35.1637 5.6054H40.3266L41.922 0.69519Z" fill="#7D2D0A"/>
<path d="M59.2238 0.69519L60.8192 5.6054H65.9821L61.8053 8.64008L63.4007 13.5503L59.2238 10.5156L55.0469 13.5503L56.6423 8.64008L52.4655 5.6054H57.6284L59.2238 0.69519Z" fill="#7D2D0A"/>
<path d="M76.5265 0.69519L78.122 5.6054H83.2849L79.108 8.64008L80.7034 13.5503L76.5265 10.5156L72.3497 13.5503L73.9451 8.64008L69.7682 5.6054H74.9311L76.5265 0.69519Z" fill="#7D2D0A"/>
</svg>
